<svg style="object-fit:cover" id="my-svg" version="1" baseProfile="full" viewBox="0 0 1366 635" xmlns="http://www.w3.org/2000/svg"><rect fill="#ffffff"/><defs><linearGradient id="linear-gradient" x1="0.5" x2="1" y1="1" y2="0"><stop offset="0%" stop-color="#28a745"/><stop offset="100%" stop-color="#1cba3c80"/></linearGradient></defs><path transform="scale(1, -1)" d="M 0,635 V 0,63 C 41.636291114383894,53.764543446244474 83.27258222876779,44.529086892488955 138,42 C 192.7274177712322,39.470913107511045 260.54596219931267,43.64819587628866 322,49 C 383.45403780068733,54.35180412371134 438.54356897398145,60.878129602356395 495,64 C 551.4564310260185,67.1218703976436 609.2797619047619,66.83928571428571 670,67 C 730.7202380952381,67.16071428571429 794.3373834069712,67.76472754050073 857,62 C 919.6626165930288,56.23527245949927 981.3707044673538,44.10180412371135 1031,40 C 1080.6292955326462,35.89819587628865 1118.1797987236132,39.8280559646539 1172,45 C 1225.8202012763868,50.1719440353461 1295.9101006381934,56.58597201767305 1366,63 C 1366,63 1366,635 1366,635 Z" stroke="none" stroke-width="0" fill="url(#linear-gradient)" class="transition-all duration-300 ease-in-out delay-150" style="transform-origin: center center;"/><defs><linearGradient id="linear-gradient" x1="0.5" x2="1" y1="1" y2="0"><stop offset="0%" stop-color="#28863790"/><stop offset="100%" stop-color="#1cba3c90"/></linearGradient></defs><path transform="scale(1, -1)" d="M 0,635 V 0,95 C 45.290930289641636,89.7708026509573 90.58186057928327,84.54160530191459 158,85 C 225.41813942071673,85.45839469808541 314.9634879725086,91.60438144329896 370,89 C 425.0365120274914,86.39561855670104 445.5641875306824,75.04086892488954 486,75 C 526.4358124693176,74.95913107511046 586.7797619047619,86.23214285714286 659,95 C 731.2202380952381,103.76785714285714 815.31676485027,110.03055964653903 879,104 C 942.68323514973,97.96944035346097 985.9531786941579,79.64561855670104 1027,83 C 1068.046821305842,86.35438144329896 1106.8705203730979,111.38696612665684 1163,117 C 1219.1294796269021,122.61303387334316 1292.564739813451,108.80651693667158 1366,95 C 1366,95 1366,635 1366,635 Z" stroke="none" stroke-width="0" fill="url(#linear-gradient)" class="transition-all duration-300 ease-in-out delay-150" style="transform-origin: center center;"/><defs><linearGradient id="linear-gradient" x1="0.5" x2="1" y1="1" y2="0"><stop offset="0%" stop-color="#288637ff"/><stop offset="100%" stop-color="#1cba3cff"/></linearGradient></defs><path transform="scale(1, -1)" d="M 0,635 V 0,142 C 71.81854442808051,151.73269513991164 143.63708885616103,161.46539027982325 201,161 C 258.36291114383897,160.53460972017675 301.27018900343637,149.87113402061854 351,139 C 400.72981099656363,128.12886597938146 457.2821551300933,117.05007363770252 520,122 C 582.7178448699067,126.94992636229748 651.6011904761905,147.92857142857142 713,151 C 774.3988095238095,154.07142857142858 828.3130829651449,139.23564064801178 880,132 C 931.6869170348551,124.7643593519882 981.1464776632301,125.12886597938146 1039,129 C 1096.8535223367699,132.87113402061854 1163.1010063819342,140.24889543446244 1219,143 C 1274.8989936180658,145.75110456553756 1320.449496809033,143.87555228276878 1366,142 C 1366,142 1366,635 1366,635 Z" stroke="none" stroke-width="0" fill="url(#linear-gradient)" class="transition-all duration-300 ease-in-out delay-150" style="transform-origin: center center;"/></svg>